<svg xmlns="http://www.w3.org/2000/svg" version="1.1" xmlns:xlink="http://www.w3.org/1999/xlink" xmlns:svgjs="http://svgjs.com/svgjs" width="1440" height="560" preserveAspectRatio="none" viewBox="0 0 1440 560"><g mask="url(&quot;#SvgjsMask1018&quot;)" fill="none"><rect width="1440" height="560" x="0" y="0" fill="rgba(38, 136, 238, 1)"></rect><path d="M 0,157 C 41.2,134.2 123.6,39.6 206,43 C 288.4,46.4 329.6,179.2 412,174 C 494.4,168.8 535.6,21.4 618,17 C 700.4,12.6 741.6,142.4 824,152 C 906.4,161.6 947.6,42.6 1030,65 C 1112.4,87.4 1154,264.2 1236,264 C 1318,263.8 1399.2,104 1440,64L1440 560L0 560z" fill="rgba(14, 220, 224, 1)"></path><path d="M 0,494 C 41.2,474.8 123.6,411.6 206,398 C 288.4,384.4 329.6,445.8 412,426 C 494.4,406.2 535.6,282.6 618,299 C 700.4,315.4 741.6,508.8 824,508 C 906.4,507.2 947.6,309.4 1030,295 C 1112.4,280.6 1154,428.8 1236,436 C 1318,443.2 1399.2,352 1440,331L1440 560L0 560z" fill="rgba(23, 107, 198, 1)"></path></g><defs><mask id="SvgjsMask1018"><rect width="1440" height="560" fill="#ffffff"></rect></mask></defs></svg>